<svg width="26" height="26" viewBox="0 0 26 26" fill="none" xmlns="http://www.w3.org/2000/svg">
<path d="M24.2552 1.94289C24.2459 1.89798 24.224 1.85664 24.1921 1.82372C24.1602 1.7908 24.1195 1.76767 24.0749 1.75703C21.1006 1.02984 14.2284 3.62121 10.5051 7.34297C9.84105 8.00168 9.23565 8.71702 8.69579 9.48086C7.54763 9.3793 6.39946 9.4641 5.42091 9.89067C2.65993 11.1059 1.85606 14.2766 1.63212 15.6406C1.61942 15.7153 1.62421 15.7919 1.64612 15.8644C1.66802 15.9368 1.70645 16.0033 1.75838 16.0584C1.8103 16.1135 1.87431 16.1558 1.94536 16.182C2.01642 16.2082 2.09258 16.2176 2.16786 16.2094L6.60157 15.7204C6.60474 16.0546 6.62491 16.3885 6.662 16.7207C6.68431 16.9515 6.78673 17.1671 6.95145 17.3301L8.66837 19.043C8.83158 19.2075 9.0471 19.3099 9.27774 19.3324C9.60811 19.3694 9.94014 19.3895 10.2725 19.3929L9.78606 23.821C9.77795 23.8962 9.78738 23.9723 9.81361 24.0434C9.83985 24.1144 9.88218 24.1783 9.93727 24.2302C9.99237 24.2821 10.0587 24.3206 10.1312 24.3425C10.2036 24.3644 10.2802 24.3693 10.3548 24.3567C11.7163 24.1384 14.8926 23.3345 16.1007 20.5735C16.5273 19.595 16.6146 18.4524 16.5161 17.3098C17.2818 16.7699 17.999 16.1643 18.6596 15.5C22.3945 11.7838 24.9712 5.06492 24.2552 1.94289ZM14.9333 11.0668C14.5922 10.7259 14.3599 10.2916 14.2657 9.81874C14.1715 9.34587 14.2197 8.85569 14.4042 8.4102C14.5886 7.96471 14.901 7.58393 15.3019 7.31603C15.7028 7.04812 16.1741 6.90512 16.6563 6.90512C17.1384 6.90512 17.6097 7.04812 18.0106 7.31603C18.4115 7.58393 18.7239 7.96471 18.9084 8.4102C19.0928 8.85569 19.141 9.34587 19.0468 9.81874C18.9526 10.2916 18.7203 10.7259 18.3793 11.0668C18.1531 11.2932 17.8845 11.4729 17.5889 11.5955C17.2932 11.7181 16.9763 11.7812 16.6563 11.7812C16.3362 11.7812 16.0193 11.7181 15.7236 11.5955C15.428 11.4729 15.1594 11.2932 14.9333 11.0668Z" fill="white"/>
<path d="M8.55156 20.2836C8.27328 20.5623 7.82691 20.671 7.28965 20.7639C6.08258 20.9696 5.01668 19.9266 5.23352 18.7063C5.31629 18.2437 5.56105 17.5952 5.7134 17.4429C5.7467 17.4102 5.76886 17.3679 5.77674 17.3219C5.78462 17.2759 5.77782 17.2287 5.7573 17.1868C5.73678 17.1449 5.70359 17.1105 5.66243 17.0886C5.62128 17.0667 5.57426 17.0582 5.52805 17.0645C4.85304 17.1471 4.22507 17.4532 3.7441 17.9339C2.55023 19.1288 2.4375 23.5625 2.4375 23.5625C2.4375 23.5625 6.87375 23.4498 8.06762 22.2549C8.54987 21.7743 8.85628 21.1454 8.9375 20.4694C8.95629 20.2572 8.69781 20.1307 8.55156 20.2836Z" fill="white"/>
</svg>
