<svg width="26" height="26" viewBox="0 0 26 26" fill="none" xmlns="http://www.w3.org/2000/svg">
<path d="M6.5 8.66669H10.8333" stroke="white" stroke-width="1.5" stroke-linecap="round" stroke-linejoin="round"/>
<path d="M22.5691 9.75H19.7503C17.8165 9.75 16.25 11.2049 16.25 13C16.25 14.7951 17.8176 16.25 19.7492 16.25H22.5691C22.6601 16.25 22.7045 16.25 22.7424 16.2478C23.3274 16.2121 23.7932 15.7798 23.8312 15.2371C23.8333 15.2024 23.8333 15.1602 23.8333 15.0767V10.9233C23.8333 10.8398 23.8333 10.7976 23.8312 10.7629C23.7922 10.2202 23.3274 9.78792 22.7424 9.75217C22.7056 9.75 22.6601 9.75 22.5691 9.75Z" stroke="white" stroke-width="1.5"/>
<path d="M22.7121 9.75001C22.6276 7.72201 22.3567 6.47834 21.4803 5.60301C20.2117 4.33334 18.1686 4.33334 14.0833 4.33334H10.8333C6.74807 4.33334 4.70491 4.33334 3.43632 5.60301C2.16666 6.87159 2.16666 8.91476 2.16666 13C2.16666 17.0853 2.16666 19.1284 3.43632 20.397C4.70491 21.6667 6.74807 21.6667 10.8333 21.6667H14.0833C18.1686 21.6667 20.2117 21.6667 21.4803 20.397C22.3567 19.5217 22.6287 18.278 22.7121 16.25" stroke="white" stroke-width="1.5"/>
<path d="M19.4902 13H19.5002" stroke="white" stroke-width="2" stroke-linecap="round" stroke-linejoin="round"/>
</svg>
